<svg width="1200" height="820" viewBox="0 0 1200 820" fill="none" xmlns="http://www.w3.org/2000/svg">
  <rect width="1200" height="820" fill="#1f2328"/>
  <text x="64" y="84" fill="#f3f4f6" font-family="Century Gothic, Arial, sans-serif" font-size="44" font-weight="700">ProjectJ40 Color Palette</text>
  <text x="64" y="124" fill="#c3c7ce" font-family="Century Gothic, Arial, sans-serif" font-size="20">Main colors used in the documentation index page.</text>

  <g transform="translate(64 174)">
    <rect width="504" height="108" rx="8" fill="#2b3036" stroke="#454b54"/>
    <rect x="22" y="22" width="64" height="64" rx="8" fill="#1f2328" stroke="#454b54"/>
    <text x="110" y="45" fill="#f3f4f6" font-family="Century Gothic, Arial, sans-serif" font-size="24" font-weight="700">Background</text>
    <text x="110" y="75" fill="#62c5bb" font-family="Consolas, monospace" font-size="20">#1f2328</text>
    <text x="300" y="74" fill="#c3c7ce" font-family="Century Gothic, Arial, sans-serif" font-size="18">Full page background</text>
  </g>

  <g transform="translate(632 174)">
    <rect width="504" height="108" rx="8" fill="#2b3036" stroke="#454b54"/>
    <rect x="22" y="22" width="64" height="64" rx="8" fill="#2b3036" stroke="#454b54"/>
    <text x="110" y="45" fill="#f3f4f6" font-family="Century Gothic, Arial, sans-serif" font-size="24" font-weight="700">Surface</text>
    <text x="110" y="75" fill="#62c5bb" font-family="Consolas, monospace" font-size="20">#2b3036</text>
    <text x="300" y="74" fill="#c3c7ce" font-family="Century Gothic, Arial, sans-serif" font-size="18">Cards, hero, viewer</text>
  </g>

  <g transform="translate(64 306)">
    <rect width="504" height="108" rx="8" fill="#2b3036" stroke="#454b54"/>
    <rect x="22" y="22" width="64" height="64" rx="8" fill="#343a42" stroke="#454b54"/>
    <text x="110" y="45" fill="#f3f4f6" font-family="Century Gothic, Arial, sans-serif" font-size="24" font-weight="700">Soft Surface</text>
    <text x="110" y="75" fill="#62c5bb" font-family="Consolas, monospace" font-size="20">#343a42</text>
    <text x="300" y="74" fill="#c3c7ce" font-family="Century Gothic, Arial, sans-serif" font-size="18">Tables and soft panels</text>
  </g>

  <g transform="translate(632 306)">
    <rect width="504" height="108" rx="8" fill="#2b3036" stroke="#454b54"/>
    <rect x="22" y="22" width="64" height="64" rx="8" fill="#f3f4f6" stroke="#454b54"/>
    <text x="110" y="45" fill="#f3f4f6" font-family="Century Gothic, Arial, sans-serif" font-size="24" font-weight="700">Primary Text</text>
    <text x="110" y="75" fill="#62c5bb" font-family="Consolas, monospace" font-size="20">#f3f4f6</text>
    <text x="300" y="74" fill="#c3c7ce" font-family="Century Gothic, Arial, sans-serif" font-size="18">Main headings and body</text>
  </g>

  <g transform="translate(64 438)">
    <rect width="504" height="108" rx="8" fill="#2b3036" stroke="#454b54"/>
    <rect x="22" y="22" width="64" height="64" rx="8" fill="#c3c7ce" stroke="#454b54"/>
    <text x="110" y="45" fill="#f3f4f6" font-family="Century Gothic, Arial, sans-serif" font-size="24" font-weight="700">Muted Text</text>
    <text x="110" y="75" fill="#62c5bb" font-family="Consolas, monospace" font-size="20">#c3c7ce</text>
    <text x="300" y="74" fill="#c3c7ce" font-family="Century Gothic, Arial, sans-serif" font-size="18">Descriptions and notes</text>
  </g>

  <g transform="translate(632 438)">
    <rect width="504" height="108" rx="8" fill="#2b3036" stroke="#454b54"/>
    <rect x="22" y="22" width="64" height="64" rx="8" fill="#454b54" stroke="#454b54"/>
    <text x="110" y="45" fill="#f3f4f6" font-family="Century Gothic, Arial, sans-serif" font-size="24" font-weight="700">Borders</text>
    <text x="110" y="75" fill="#62c5bb" font-family="Consolas, monospace" font-size="20">#454b54</text>
    <text x="300" y="74" fill="#c3c7ce" font-family="Century Gothic, Arial, sans-serif" font-size="18">Dividers and outlines</text>
  </g>

  <g transform="translate(64 570)">
    <rect width="504" height="108" rx="8" fill="#2b3036" stroke="#454b54"/>
    <rect x="22" y="22" width="64" height="64" rx="8" fill="#2f7d75" stroke="#454b54"/>
    <text x="110" y="45" fill="#f3f4f6" font-family="Century Gothic, Arial, sans-serif" font-size="24" font-weight="700">Primary Accent</text>
    <text x="110" y="75" fill="#62c5bb" font-family="Consolas, monospace" font-size="20">#2f7d75</text>
    <text x="300" y="74" fill="#c3c7ce" font-family="Century Gothic, Arial, sans-serif" font-size="18">Main buttons</text>
  </g>

  <g transform="translate(632 570)">
    <rect width="504" height="108" rx="8" fill="#2b3036" stroke="#454b54"/>
    <rect x="22" y="22" width="64" height="64" rx="8" fill="#62c5bb" stroke="#454b54"/>
    <text x="110" y="45" fill="#f3f4f6" font-family="Century Gothic, Arial, sans-serif" font-size="24" font-weight="700">Light Accent</text>
    <text x="110" y="75" fill="#62c5bb" font-family="Consolas, monospace" font-size="20">#62c5bb</text>
    <text x="300" y="74" fill="#c3c7ce" font-family="Century Gothic, Arial, sans-serif" font-size="18">Links and section titles</text>
  </g>

  <g transform="translate(64 702)">
    <rect width="504" height="108" rx="8" fill="#2b3036" stroke="#454b54"/>
    <rect x="22" y="22" width="64" height="64" rx="8" fill="#f3b562" stroke="#454b54"/>
    <text x="110" y="45" fill="#f3f4f6" font-family="Century Gothic, Arial, sans-serif" font-size="24" font-weight="700">Interaction Accent</text>
    <text x="110" y="75" fill="#62c5bb" font-family="Consolas, monospace" font-size="20">#f3b562</text>
    <text x="300" y="74" fill="#c3c7ce" font-family="Century Gothic, Arial, sans-serif" font-size="18">Hover and active state</text>
  </g>

  <g transform="translate(632 702)">
    <rect width="504" height="108" rx="8" fill="#2b3036" stroke="#454b54"/>
    <rect x="22" y="22" width="64" height="64" rx="8" fill="#171a1f" stroke="#454b54"/>
    <text x="110" y="45" fill="#f3f4f6" font-family="Century Gothic, Arial, sans-serif" font-size="24" font-weight="700">Code Background</text>
    <text x="110" y="75" fill="#62c5bb" font-family="Consolas, monospace" font-size="20">#171a1f</text>
    <text x="300" y="74" fill="#c3c7ce" font-family="Century Gothic, Arial, sans-serif" font-size="18">Inline and block code</text>
  </g>
</svg>
